# xmcd
#
# Track frame offsets:
#	150
#	13830
#	31773
#	47088
#	67452
#	80694
#	92692
#	106683
#	124093
#	139314
#	157557
#	168463
#	183127
#	197716
#
# Disc length: 2855 seconds
# Revision: 2
# Processed by: cddbd v1.5.2PL0 Copyright (c) Steve Scherf et al.
# Submitted via: dBpowerAMP V12.0
#
DISCID=b40b250e
DTITLE=Border Radio - Americana Brand
DYEAR=2002
DGENRE=Country
TTITLE0=This Old Pen
TTITLE1=Is This the One
TTITLE2=Unlucky Love
TTITLE3=When I Get My Rewards
TTITLE4=Cowboy Dancing
TTITLE5=Wedding Day
TTITLE6=Farm Wife
TTITLE7=Sad Sound
TTITLE8=These Hills
TTITLE9=Long Black Veil
TTITLE10=Vacant Lot
TTITLE11=Playin' Cowboys
TTITLE12=Dressed Up to Say Goodbye
TTITLE13=The Other Side of the Door
EXTD=
EXTT0=
EXTT1=
EXTT2=
EXTT3=
EXTT4=
EXTT5=
EXTT6=
EXTT7=
EXTT8=
EXTT9=
EXTT10=
EXTT11=
EXTT12=
EXTT13=
PLAYORDER=
